# xmcd
#
# Track frame offsets: 
#        150
#        23655
#        37350
#        53405
#        70350
#        86520
#        107670
#        124125
#        139748
#        157528
#
# Disc length: 2267 seconds
#
# Revision: 0
# Processed by: cddbd v1.5.2PL0 Copyright (c) Steve Scherf et al.
# Submitted via: ExactAudioCopy v0.99pb5
#
DISCID=7b08d90a
DTITLE=Basse Wickman - Nio Liv
DYEAR=1994
DGENRE=Pop
TTITLE0=Branda Broar
TTITLE1=Karlekens Pris
TTITLE2=Dit Vindarna Vill
TTITLE3=Kort Mote
TTITLE4=Vintervals
TTITLE5=Bilderna Bleknar
TTITLE6=Nere Vid Stranden
TTITLE7=Segla Med Manen
TTITLE8=Narrarnas Skepp
TTITLE9=Atersken
EXTD=
EXTT0=
EXTT1=
EXTT2=
EXTT3=
EXTT4=
EXTT5=
EXTT6=
EXTT7=
EXTT8=
EXTT9=
PLAYORDER=
